<svg xmlns="http://www.w3.org/2000/svg" viewBox="0 0 1440 320" preserveAspectRatio="none">
<path fill="#fff" fill-opacity="1" d="M0,160L26.7,165.3C53.3,171,107,181,160,176C213.3,171,267,149,320,170.7C373.3,192,427,256,480,256C533.3,256,587,192,640,160C693.3,128,747,128,800,133.3C853.3,139,907,149,960,133.3C1013.3,117,1067,75,1120,96C1173.3,117,1227,203,1280,245.3C1333.3,288,1387,288,1413,288L1440,288L1440,320L1413.3,320C1386.7,320,1333,320,1280,320C1226.7,320,1173,320,1120,320C1066.7,320,1013,320,960,320C906.7,320,853,320,800,320C746.7,320,693,320,640,320C586.7,320,533,320,480,320C426.7,320,373,320,320,320C266.7,320,213,320,160,320C106.7,320,53,320,27,320L0,320Z"></path></svg>